<?xml version="1.0" encoding="UTF-8" standalone="no"?>
<!-- Created with Inkscape (http://www.inkscape.org/) -->

<svg
   width="1000"
   height="1000"
   viewBox="0 0 264.58333 264.58333"
   version="1.1"
   id="svg1"
   inkscape:version="1.4.3 (0d15f75042, 2025-12-25)"
   sodipodi:docname="drawing.svg"
   inkscape:export-filename="logo_blue-16x16.png"
   inkscape:export-xdpi="1.536"
   inkscape:export-ydpi="1.536"
   xmlns:inkscape="http://www.inkscape.org/namespaces/inkscape"
   xmlns:sodipodi="http://sodipodi.sourceforge.net/DTD/sodipodi-0.dtd"
   xmlns="http://www.w3.org/2000/svg"
   xmlns:svg="http://www.w3.org/2000/svg">
  <sodipodi:namedview
     id="namedview1"
     pagecolor="#ffffff"
     bordercolor="#000000"
     borderopacity="0.25"
     inkscape:showpageshadow="2"
     inkscape:pageopacity="0.0"
     inkscape:pagecheckerboard="0"
     inkscape:deskcolor="#d1d1d1"
     inkscape:document-units="mm"
     showgrid="true"
     inkscape:zoom="0.55"
     inkscape:cx="412.72727"
     inkscape:cy="551.81818"
     inkscape:window-width="1237"
     inkscape:window-height="1150"
     inkscape:window-x="5"
     inkscape:window-y="43"
     inkscape:window-maximized="1"
     inkscape:current-layer="layer1">
    <inkscape:grid
       id="grid1"
       units="mm"
       originx="0"
       originy="0"
       spacingx="0.99999999"
       spacingy="0.99999999"
       empcolor="#0099e5"
       empopacity="0.30196078"
       color="#0099e5"
       opacity="0.14901961"
       empspacing="5"
       enabled="true"
       visible="true" />
  </sodipodi:namedview>
  <defs
     id="defs1">
    <rect
       x="238.25905"
       y="161.83633"
       width="690.80139"
       height="830.16046"
       id="rect7" />
    <rect
       x="301.80551"
       y="385.87595"
       width="25.8111"
       height="41.482125"
       id="rect6" />
    <rect
       x="313.23614"
       y="408.18411"
       width="67.661956"
       height="82.226791"
       id="rect5" />
    <rect
       x="267.51362"
       y="380.52936"
       width="63.237196"
       height="61.762276"
       id="rect4" />
    <rect
       x="238.25905"
       y="161.83633"
       width="690.80139"
       height="830.16046"
       id="rect7-7" />
    <rect
       x="301.80551"
       y="385.87595"
       width="25.8111"
       height="41.482125"
       id="rect13" />
    <rect
       x="301.80551"
       y="385.87595"
       width="25.8111"
       height="41.482125"
       id="rect17" />
  </defs>
  <g
     inkscape:label="Layer 1"
     inkscape:groupmode="layer"
     id="layer1"
     style="display:none">
    <text
       xml:space="preserve"
       transform="scale(0.26458333)"
       id="text6"
       style="writing-mode:lr-tb;direction:ltr;white-space:pre;shape-inside:url(#rect6);display:inline;fill:#000000" />
    <path
       d="m 236.25976,268.16932 h 421.00021 v 56.6667 H 480.59321 V 765.83623 H 412.92652 V 324.83602 H 236.25976 Z"
       id="text7"
       style="font-size:682.667px;white-space:pre"
       aria-label="T"
       transform="matrix(0.28844852,0,0,0.34992847,-38.552149,-63.723772)" />
    <path
       d="m 236.25976,268.16932 h 421.00021 v 56.6667 H 480.59321 V 765.83623 H 412.92652 V 324.83602 H 236.25976 Z"
       id="text7-5"
       style="font-size:682.667px;white-space:pre"
       aria-label="T"
       transform="matrix(0.28844852,0,0,0.34992847,-11.231294,-33.224405)" />
    <path
       d="m 136.83112,85.954894 h 19.91149 v 3.585755 h -15.65077 v 9.322962 h 14.99689 v 3.585759 h -14.99689 v 11.41113 h 16.03043 v 3.58576 h -20.29115 z m 27.29392,0 h 4.26072 V 113.8605 h 15.33438 v 3.58576 h -19.5951 z m 24.06674,0 h 19.91149 v 3.585755 H 192.4525 v 9.322962 h 14.9969 v 3.585759 h -14.9969 v 11.41113 h 16.03044 v 3.58576 h -20.29116 z"
       id="text8"
       style="font-size:43.1978px;stroke-width:0.253112"
       aria-label="ELE"
       transform="scale(0.95664329,1.0453217)" />
    <path
       d="m 152.08206,129.36875 -5.7794,15.67186 h 11.57988 z m -2.40457,-4.19744 h 4.83023 l 12.00173,31.49136 h -4.42946 l -2.86861,-8.07849 h -14.19537 l -2.8686,8.07849 h -4.49274 z m 25.69088,16.45229 v 11.53769 h 6.83403 q 3.4381,0 5.08333,-1.41321 1.66632,-1.4343 1.66632,-4.36618 0,-2.95298 -1.66632,-4.34509 -1.64523,-1.41321 -5.08333,-1.41321 z m 0,-12.95091 v 9.49171 h 6.30671 q 3.12172,0 4.64039,-1.1601 1.53977,-1.18119 1.53977,-3.58575 0,-2.38348 -1.53977,-3.56467 -1.51867,-1.18119 -4.64039,-1.18119 z m -4.26072,-3.50138 h 10.88382 q 4.87241,0 7.50899,2.0249 2.63659,2.02489 2.63659,5.7583 0,2.88969 -1.34993,4.5982 -1.34993,1.70851 -3.96543,2.13036 3.14281,0.67497 4.87241,2.82642 1.75069,2.13036 1.75069,5.33645 0,4.21853 -2.8686,6.51763 -2.8686,2.2991 -8.16287,2.2991 h -11.30567 z m 29.63521,0 h 4.26072 v 27.90561 h 15.33438 v 3.58575 h -19.5951 z m 24.06674,0 h 19.91149 v 3.58575 h -15.65076 v 9.32297 h 14.99689 v 3.58575 h -14.99689 v 11.41114 h 16.03043 v 3.58575 H 224.8096 Z"
       id="text9"
       style="font-size:43.1978px;stroke-width:0.253112"
       aria-label="ABLE"
       transform="scale(0.95664329,1.0453217)" />
  </g>
  <g
     inkscape:label="Layer 2"
     inkscape:groupmode="layer"
     id="g17"
     style="display:none">
    <text
       xml:space="preserve"
       transform="scale(0.26458333)"
       id="text13"
       style="writing-mode:lr-tb;direction:ltr;white-space:pre;shape-inside:url(#rect17);display:inline;fill:#ffffff" />
    <path
       d="m 236.25976,268.16932 h 421.00021 v 56.6667 H 480.59321 V 765.83623 H 412.92652 V 324.83602 H 236.25976 Z"
       id="path14"
       style="font-size:682.667px;white-space:pre;fill:#ffffff"
       aria-label="T"
       transform="matrix(0.28844852,0,0,0.34992847,-38.552149,-63.723772)" />
    <path
       d="m 236.25976,268.16932 h 421.00021 v 56.6667 H 480.59321 V 765.83623 H 412.92652 V 324.83602 H 236.25976 Z"
       id="path15"
       style="font-size:682.667px;white-space:pre;fill:#ffffff"
       aria-label="T"
       transform="matrix(0.28844852,0,0,0.34992847,-11.231294,-33.224405)" />
    <path
       d="m 136.83112,85.954894 h 19.91149 v 3.585755 h -15.65077 v 9.322962 h 14.99689 v 3.585759 h -14.99689 v 11.41113 h 16.03043 v 3.58576 h -20.29115 z m 27.29392,0 h 4.26072 V 113.8605 h 15.33438 v 3.58576 h -19.5951 z m 24.06674,0 h 19.91149 v 3.585755 H 192.4525 v 9.322962 h 14.9969 v 3.585759 h -14.9969 v 11.41113 h 16.03044 v 3.58576 h -20.29116 z"
       id="path16"
       style="font-size:43.1978px;fill:#ffffff;stroke-width:0.253112"
       aria-label="ELE"
       transform="scale(0.95664329,1.0453217)" />
    <path
       d="m 152.08206,129.36875 -5.7794,15.67186 h 11.57988 z m -2.40457,-4.19744 h 4.83023 l 12.00173,31.49136 h -4.42946 l -2.86861,-8.07849 h -14.19537 l -2.8686,8.07849 h -4.49274 z m 25.69088,16.45229 v 11.53769 h 6.83403 q 3.4381,0 5.08333,-1.41321 1.66632,-1.4343 1.66632,-4.36618 0,-2.95298 -1.66632,-4.34509 -1.64523,-1.41321 -5.08333,-1.41321 z m 0,-12.95091 v 9.49171 h 6.30671 q 3.12172,0 4.64039,-1.1601 1.53977,-1.18119 1.53977,-3.58575 0,-2.38348 -1.53977,-3.56467 -1.51867,-1.18119 -4.64039,-1.18119 z m -4.26072,-3.50138 h 10.88382 q 4.87241,0 7.50899,2.0249 2.63659,2.02489 2.63659,5.7583 0,2.88969 -1.34993,4.5982 -1.34993,1.70851 -3.96543,2.13036 3.14281,0.67497 4.87241,2.82642 1.75069,2.13036 1.75069,5.33645 0,4.21853 -2.8686,6.51763 -2.8686,2.2991 -8.16287,2.2991 h -11.30567 z m 29.63521,0 h 4.26072 v 27.90561 h 15.33438 v 3.58575 h -19.5951 z m 24.06674,0 h 19.91149 v 3.58575 h -15.65076 v 9.32297 h 14.99689 v 3.58575 h -14.99689 v 11.41114 h 16.03043 v 3.58575 H 224.8096 Z"
       id="path17"
       style="font-size:43.1978px;fill:#ffffff;stroke-width:0.253112"
       aria-label="ABLE"
       transform="scale(0.95664329,1.0453217)" />
  </g>
  <g
     inkscape:label="Layer 3"
     inkscape:groupmode="layer"
     id="g13"
     style="display:inline">
    <text
       xml:space="preserve"
       transform="scale(0.26458333)"
       id="text10"
       style="writing-mode:lr-tb;direction:ltr;white-space:pre;shape-inside:url(#rect13);display:inline;fill:#00f0ff;fill-opacity:1" />
    <path
       d="m 236.25976,268.16932 h 421.00021 v 56.6667 H 480.59321 V 765.83623 H 412.92652 V 324.83602 H 236.25976 Z"
       id="path10"
       style="font-size:682.667px;white-space:pre;fill:#00f0ff;fill-opacity:1"
       aria-label="T"
       transform="matrix(0.28844852,0,0,0.34992847,-38.552149,-63.723772)" />
    <path
       d="m 236.25976,268.16932 h 421.00021 v 56.6667 H 480.59321 V 765.83623 H 412.92652 V 324.83602 H 236.25976 Z"
       id="path11"
       style="font-size:682.667px;white-space:pre;fill:#00f0ff;fill-opacity:1"
       aria-label="T"
       transform="matrix(0.28844852,0,0,0.34992847,-11.231294,-33.224405)" />
    <path
       d="m 136.83112,85.954894 h 19.91149 v 3.585755 h -15.65077 v 9.322962 h 14.99689 v 3.585759 h -14.99689 v 11.41113 h 16.03043 v 3.58576 h -20.29115 z m 27.29392,0 h 4.26072 V 113.8605 h 15.33438 v 3.58576 h -19.5951 z m 24.06674,0 h 19.91149 v 3.585755 H 192.4525 v 9.322962 h 14.9969 v 3.585759 h -14.9969 v 11.41113 h 16.03044 v 3.58576 h -20.29116 z"
       id="path12"
       style="font-size:43.1978px;fill:#00f0ff;fill-opacity:1;stroke-width:0.253112"
       aria-label="ELE"
       transform="scale(0.95664329,1.0453217)" />
    <path
       d="m 152.08206,129.36875 -5.7794,15.67186 h 11.57988 z m -2.40457,-4.19744 h 4.83023 l 12.00173,31.49136 h -4.42946 l -2.86861,-8.07849 h -14.19537 l -2.8686,8.07849 h -4.49274 z m 25.69088,16.45229 v 11.53769 h 6.83403 q 3.4381,0 5.08333,-1.41321 1.66632,-1.4343 1.66632,-4.36618 0,-2.95298 -1.66632,-4.34509 -1.64523,-1.41321 -5.08333,-1.41321 z m 0,-12.95091 v 9.49171 h 6.30671 q 3.12172,0 4.64039,-1.1601 1.53977,-1.18119 1.53977,-3.58575 0,-2.38348 -1.53977,-3.56467 -1.51867,-1.18119 -4.64039,-1.18119 z m -4.26072,-3.50138 h 10.88382 q 4.87241,0 7.50899,2.0249 2.63659,2.02489 2.63659,5.7583 0,2.88969 -1.34993,4.5982 -1.34993,1.70851 -3.96543,2.13036 3.14281,0.67497 4.87241,2.82642 1.75069,2.13036 1.75069,5.33645 0,4.21853 -2.8686,6.51763 -2.8686,2.2991 -8.16287,2.2991 h -11.30567 z m 29.63521,0 h 4.26072 v 27.90561 h 15.33438 v 3.58575 h -19.5951 z m 24.06674,0 h 19.91149 v 3.58575 h -15.65076 v 9.32297 h 14.99689 v 3.58575 h -14.99689 v 11.41114 h 16.03043 v 3.58575 H 224.8096 Z"
       id="path13"
       style="font-size:43.1978px;fill:#00f0ff;fill-opacity:1;stroke-width:0.253112"
       aria-label="ABLE"
       transform="scale(0.95664329,1.0453217)" />
  </g>
</svg>
